<svg width="84" height="84" viewBox="0 0 84 84" fill="none" xmlns="http://www.w3.org/2000/svg">
<mask id="mask0_172_1976" style="mask-type:alpha" maskUnits="userSpaceOnUse" x="0" y="0" width="84" height="84">
<circle cx="42" cy="42" r="42" fill="#D9D9D9"/>
</mask>
<g mask="url(#mask0_172_1976)">
<path d="M85 0H0V85H85V0Z" fill="#E2D6E2"/>
<path d="M61.0938 55.7812H23.9062V58.4375H61.0938V55.7812Z" fill="#5A423F"/>
<path d="M61.0938 58.4375H23.9062V61.0938H61.0938V58.4375Z" fill="#5A423F"/>
<path d="M61.0938 61.0938H23.9062V63.75H61.0938V61.0938Z" fill="#5A423F"/>
<path d="M61.0938 63.75H23.9062V66.4062H61.0938V63.75Z" fill="#5A423F"/>
<path d="M29.2188 66.4062H23.9062V69.0625H29.2188V66.4062Z" fill="#5A423F"/>
<path d="M61.0938 66.4062H31.875V69.0625H61.0938V66.4062Z" fill="#5A423F"/>
<path d="M29.2188 69.0625H23.9062V71.7188H29.2188V69.0625Z" fill="#5A423F"/>
<path d="M61.0938 69.0625H31.875V71.7188H61.0938V69.0625Z" fill="#5A423F"/>
<path d="M29.2188 71.7188H23.9062V74.375H29.2188V71.7188Z" fill="#5A423F"/>
<path d="M61.0938 71.7188H31.875V74.375H61.0938V71.7188Z" fill="#5A423F"/>
<path d="M29.2188 74.375H23.9062V77.0312H29.2188V74.375Z" fill="#5A423F"/>
<path d="M61.0938 74.375H31.875V77.0312H61.0938V74.375Z" fill="#5A423F"/>
<path d="M29.2188 77.0312H23.9062V79.6875H29.2188V77.0312Z" fill="#5A423F"/>
<path d="M61.0938 77.0312H31.875V79.6875H61.0938V77.0312Z" fill="#5A423F"/>
<path d="M29.2188 79.6875H23.9062V82.3438H29.2188V79.6875Z" fill="#5A423F"/>
<path d="M61.0938 79.6875H31.875V82.3438H61.0938V79.6875Z" fill="#5A423F"/>
<path d="M29.2188 82.3438H23.9062V85H29.2188V82.3438Z" fill="#5A423F"/>
<path d="M61.0938 82.3438H31.875V85H61.0938V82.3438Z" fill="#5A423F"/>
<path d="M39.8438 61.0938H34.5312V63.75H39.8438V61.0938Z" fill="white"/>
<path d="M50.4688 61.0938H45.1562V63.75H50.4688V61.0938Z" fill="#027C92"/>
<path d="M39.8438 63.75H34.5312V66.4062H39.8438V63.75Z" fill="white"/>
<path d="M50.4688 63.75H45.1562V66.4062H50.4688V63.75Z" fill="#027C92"/>
<path d="M37.1875 66.4062H34.5312V69.0625H37.1875V66.4062Z" fill="white"/>
<path d="M42.5 66.4062H39.8438V69.0625H42.5V66.4062Z" fill="white"/>
<path d="M50.4688 66.4062H45.1562V69.0625H50.4688V66.4062Z" fill="#027C92"/>
<path d="M42.5 71.7188H34.5312V74.375H42.5V71.7188Z" fill="#E8705B"/>
<path d="M47.8125 71.7188H45.1562V74.375H47.8125V71.7188Z" fill="#FFC110"/>
<path d="M39.8438 74.375H34.5312V77.0312H39.8438V74.375Z" fill="#E8705B"/>
<path d="M47.8125 74.375H45.1562V77.0312H47.8125V74.375Z" fill="#FFC110"/>
<path d="M37.1875 77.0312H34.5312V79.6875H37.1875V77.0312Z" fill="#E8705B"/>
<path d="M50.4688 77.0312H45.1562V79.6875H50.4688V77.0312Z" fill="#FFC110"/>
<path d="M42.5 5.3125H39.8438V7.96875H42.5V5.3125Z" fill="#FCFF00"/>
<path d="M34.5312 7.96875H26.5625V10.625H34.5312V7.96875Z" fill="#25E1AE"/>
<path d="M39.8438 7.96875H37.1875V10.625H39.8438V7.96875Z" fill="#FCFF00"/>
<path d="M45.1562 7.96875H42.5V10.625H45.1562V7.96875Z" fill="#FCFF00"/>
<path d="M50.4688 7.96875H47.8125V10.625H50.4688V7.96875Z" fill="#FCFF00"/>
<path d="M58.4375 7.96875H50.4688V10.625H58.4375V7.96875Z" fill="#25E1AE"/>
<path d="M26.5625 10.625H23.9062V13.2812H26.5625V10.625Z" fill="#25E1AE"/>
<path d="M29.2188 10.625H26.5625V13.2812H29.2188V10.625Z" fill="#BDFDE9"/>
<path d="M31.875 10.625H29.2188V13.2812H31.875V10.625Z" fill="#25E1AE"/>
<path d="M37.1875 10.625H34.5312V13.2812H37.1875V10.625Z" fill="#FCFF00"/>
<path d="M47.8125 10.625H45.1562V13.2812H47.8125V10.625Z" fill="#FCFF00"/>
<path d="M55.7812 10.625H53.125V13.2812H55.7812V10.625Z" fill="#25E1AE"/>
<path d="M58.4375 10.625H55.7812V13.2812H58.4375V10.625Z" fill="white"/>
<path d="M61.0938 10.625H58.4375V13.2812H61.0938V10.625Z" fill="#25E1AE"/>
<path d="M23.9062 13.2812H21.25V15.9375H23.9062V13.2812Z" fill="#25E1AE"/>
<path d="M26.5625 13.2812H23.9062V15.9375H26.5625V13.2812Z" fill="#BDFDE9"/>
<path d="M29.2188 13.2812H26.5625V15.9375H29.2188V13.2812Z" fill="white"/>
<path d="M31.875 13.2812H29.2188V15.9375H31.875V13.2812Z" fill="#25E1AE"/>
<path d="M55.7812 13.2812H53.125V15.9375H55.7812V13.2812Z" fill="#25E1AE"/>
<path d="M61.0938 13.2812H55.7812V15.9375H61.0938V13.2812Z" fill="white"/>
<path d="M63.75 13.2812H61.0938V15.9375H63.75V13.2812Z" fill="#25E1AE"/>
<path d="M21.25 15.9375H18.5938V18.5938H21.25V15.9375Z" fill="#25E1AE"/>
<path d="M23.9062 15.9375H21.25V18.5938H23.9062V15.9375Z" fill="#BDFDE9"/>
<path d="M31.875 15.9375H23.9062V18.5938H31.875V15.9375Z" fill="white"/>
<path d="M53.125 15.9375H31.875V18.5938H53.125V15.9375Z" fill="#25E1AE"/>
<path d="M63.75 15.9375H53.125V18.5938H63.75V15.9375Z" fill="white"/>
<path d="M66.4062 15.9375H63.75V18.5938H66.4062V15.9375Z" fill="#25E1AE"/>
<path d="M21.25 18.5938H18.5938V21.25H21.25V18.5938Z" fill="#25E1AE"/>
<path d="M23.9062 18.5938H21.25V21.25H23.9062V18.5938Z" fill="#BDFDE9"/>
<path d="M63.75 18.5938H23.9062V21.25H63.75V18.5938Z" fill="white"/>
<path d="M66.4062 18.5938H63.75V21.25H66.4062V18.5938Z" fill="#25E1AE"/>
<path d="M18.5938 21.25H10.625V23.9062H18.5938V21.25Z" fill="#25E1AE"/>
<path d="M23.9062 21.25H18.5938V23.9062H23.9062V21.25Z" fill="#BDFDE9"/>
<path d="M26.5625 21.25H23.9062V23.9062H26.5625V21.25Z" fill="white"/>
<path d="M29.2188 21.25H26.5625V23.9062H29.2188V21.25Z" fill="#0040FF"/>
<path d="M31.875 21.25H29.2188V23.9062H31.875V21.25Z" fill="white"/>
<path d="M34.5312 21.25H31.875V23.9062H34.5312V21.25Z" fill="#00FF0D"/>
<path d="M58.4375 21.25H34.5312V23.9062H58.4375V21.25Z" fill="white"/>
<path d="M61.0938 21.25H58.4375V23.9062H61.0938V21.25Z" fill="#FF002A"/>
<path d="M66.4062 21.25H61.0938V23.9062H66.4062V21.25Z" fill="white"/>
<path d="M74.375 21.25H66.4062V23.9062H74.375V21.25Z" fill="#25E1AE"/>
<path d="M10.625 23.9062H7.96875V26.5625H10.625V23.9062Z" fill="#25E1AE"/>
<path d="M15.9375 23.9062H10.625V26.5625H15.9375V23.9062Z" fill="white"/>
<path d="M18.5938 23.9062H15.9375V26.5625H18.5938V23.9062Z" fill="#25E1AE"/>
<path d="M21.25 23.9062H18.5938V26.5625H21.25V23.9062Z" fill="#BDFDE9"/>
<path d="M23.9062 23.9062H21.25V26.5625H23.9062V23.9062Z" fill="#D2F1E9"/>
<path d="M26.5625 23.9062H23.9062V26.5625H26.5625V23.9062Z" fill="white"/>
<path d="M61.0938 23.9062H26.5625V26.5625H61.0938V23.9062Z" fill="#00CD84"/>
<path d="M69.0625 23.9062H61.0938V26.5625H69.0625V23.9062Z" fill="white"/>
<path d="M71.7188 23.9062H69.0625V26.5625H71.7188V23.9062Z" fill="#25E1AE"/>
<path d="M74.375 23.9062H71.7188V26.5625H74.375V23.9062Z" fill="white"/>
<path d="M77.0312 23.9062H74.375V26.5625H77.0312V23.9062Z" fill="#25E1AE"/>
<path d="M10.625 26.5625H7.96875V29.2188H10.625V26.5625Z" fill="#25E1AE"/>
<path d="M15.9375 26.5625H10.625V29.2188H15.9375V26.5625Z" fill="white"/>
<path d="M18.5938 26.5625H15.9375V29.2188H18.5938V26.5625Z" fill="#25E1AE"/>
<path d="M23.9062 26.5625H18.5938V29.2188H23.9062V26.5625Z" fill="#BDFDE9"/>
<path d="M26.5625 26.5625H23.9062V29.2188H26.5625V26.5625Z" fill="#00CD84"/>
<path d="M61.0938 26.5625H26.5625V29.2188H61.0938V26.5625Z" fill="#25E1AE"/>
<path d="M63.75 26.5625H61.0938V29.2188H63.75V26.5625Z" fill="#00CD84"/>
<path d="M69.0625 26.5625H63.75V29.2188H69.0625V26.5625Z" fill="white"/>
<path d="M71.7188 26.5625H69.0625V29.2188H71.7188V26.5625Z" fill="#25E1AE"/>
<path d="M74.375 26.5625H71.7188V29.2188H74.375V26.5625Z" fill="white"/>
<path d="M77.0312 26.5625H74.375V29.2188H77.0312V26.5625Z" fill="#25E1AE"/>
<path d="M10.625 29.2188H7.96875V31.875H10.625V29.2188Z" fill="#25E1AE"/>
<path d="M15.9375 29.2188H10.625V31.875H15.9375V29.2188Z" fill="white"/>
<path d="M18.5938 29.2188H15.9375V31.875H18.5938V29.2188Z" fill="#25E1AE"/>
<path d="M21.25 29.2188H18.5938V31.875H21.25V29.2188Z" fill="#BDFDE9"/>
<path d="M23.9062 29.2188H21.25V31.875H23.9062V29.2188Z" fill="#00CD84"/>
<path d="M63.75 29.2188H23.9062V31.875H63.75V29.2188Z" fill="#25E1AE"/>
<path d="M66.4062 29.2188H63.75V31.875H66.4062V29.2188Z" fill="#00CD84"/>
<path d="M69.0625 29.2188H66.4062V31.875H69.0625V29.2188Z" fill="white"/>
<path d="M71.7188 29.2188H69.0625V31.875H71.7188V29.2188Z" fill="#25E1AE"/>
<path d="M74.375 29.2188H71.7188V31.875H74.375V29.2188Z" fill="white"/>
<path d="M77.0312 29.2188H74.375V31.875H77.0312V29.2188Z" fill="#25E1AE"/>
<path d="M10.625 31.875H7.96875V34.5312H10.625V31.875Z" fill="#25E1AE"/>
<path d="M15.9375 31.875H10.625V34.5312H15.9375V31.875Z" fill="white"/>
<path d="M18.5938 31.875H15.9375V34.5312H18.5938V31.875Z" fill="#25E1AE"/>
<path d="M21.25 31.875H18.5938V34.5312H21.25V31.875Z" fill="#BDFDE9"/>
<path d="M23.9062 31.875H21.25V34.5312H23.9062V31.875Z" fill="#00CD84"/>
<path d="M63.75 31.875H23.9062V34.5312H63.75V31.875Z" fill="#25E1AE"/>
<path d="M66.4062 31.875H63.75V34.5312H66.4062V31.875Z" fill="#00CD84"/>
<path d="M69.0625 31.875H66.4062V34.5312H69.0625V31.875Z" fill="white"/>
<path d="M71.7188 31.875H69.0625V34.5312H71.7188V31.875Z" fill="#25E1AE"/>
<path d="M74.375 31.875H71.7188V34.5312H74.375V31.875Z" fill="white"/>
<path d="M77.0312 31.875H74.375V34.5312H77.0312V31.875Z" fill="#25E1AE"/>
<path d="M15.9375 34.5312H7.96875V37.1875H15.9375V34.5312Z" fill="black"/>
<path d="M63.75 34.5312H15.9375V37.1875H63.75V34.5312Z" fill="#25E1AE"/>
<path d="M66.4062 34.5312H63.75V37.1875H66.4062V34.5312Z" fill="#00CD84"/>
<path d="M69.0625 34.5312H66.4062V37.1875H69.0625V34.5312Z" fill="white"/>
<path d="M71.7188 34.5312H69.0625V37.1875H71.7188V34.5312Z" fill="#25E1AE"/>
<path d="M77.0312 34.5312H71.7188V37.1875H77.0312V34.5312Z" fill="black"/>
<path d="M10.625 37.1875H7.96875V39.8438H10.625V37.1875Z" fill="#25E1AE"/>
<path d="M13.2812 37.1875H10.625V39.8438H13.2812V37.1875Z" fill="white"/>
<path d="M15.9375 37.1875H13.2812V39.8438H15.9375V37.1875Z" fill="#25E1AE"/>
<path d="M21.25 37.1875H15.9375V39.8438H21.25V37.1875Z" fill="#BDFDE9"/>
<path d="M23.9062 37.1875H21.25V39.8438H23.9062V37.1875Z" fill="#00CD84"/>
<path d="M63.75 37.1875H23.9062V39.8438H63.75V37.1875Z" fill="#25E1AE"/>
<path d="M66.4062 37.1875H63.75V39.8438H66.4062V37.1875Z" fill="#00CD84"/>
<path d="M69.0625 37.1875H66.4062V39.8438H69.0625V37.1875Z" fill="white"/>
<path d="M71.7188 37.1875H69.0625V39.8438H71.7188V37.1875Z" fill="#25E1AE"/>
<path d="M74.375 37.1875H71.7188V39.8438H74.375V37.1875Z" fill="white"/>
<path d="M77.0312 37.1875H74.375V39.8438H77.0312V37.1875Z" fill="#25E1AE"/>
<path d="M13.2812 39.8438H10.625V42.5H13.2812V39.8438Z" fill="black"/>
<path d="M15.9375 39.8438H13.2812V42.5H15.9375V39.8438Z" fill="#25E1AE"/>
<path d="M21.25 39.8438H15.9375V42.5H21.25V39.8438Z" fill="#BDFDE9"/>
<path d="M23.9062 39.8438H21.25V42.5H23.9062V39.8438Z" fill="#00CD84"/>
<path d="M63.75 39.8438H23.9062V42.5H63.75V39.8438Z" fill="#25E1AE"/>
<path d="M66.4062 39.8438H63.75V42.5H66.4062V39.8438Z" fill="#00CD84"/>
<path d="M69.0625 39.8438H66.4062V42.5H69.0625V39.8438Z" fill="white"/>
<path d="M71.7188 39.8438H69.0625V42.5H71.7188V39.8438Z" fill="#25E1AE"/>
<path d="M74.375 39.8438H71.7188V42.5H74.375V39.8438Z" fill="black"/>
<path d="M15.9375 42.5H10.625V45.1562H15.9375V42.5Z" fill="#25E1AE"/>
<path d="M21.25 42.5H15.9375V45.1562H21.25V42.5Z" fill="#BDFDE9"/>
<path d="M23.9062 42.5H21.25V45.1562H23.9062V42.5Z" fill="#00CD84"/>
<path d="M63.75 42.5H23.9062V45.1562H63.75V42.5Z" fill="#25E1AE"/>
<path d="M66.4062 42.5H63.75V45.1562H66.4062V42.5Z" fill="#00CD84"/>
<path d="M69.0625 42.5H66.4062V45.1562H69.0625V42.5Z" fill="white"/>
<path d="M74.375 42.5H69.0625V45.1562H74.375V42.5Z" fill="#25E1AE"/>
<path d="M15.9375 45.1562H13.2812V47.8125H15.9375V45.1562Z" fill="#25E1AE"/>
<path d="M23.9062 45.1562H15.9375V47.8125H23.9062V45.1562Z" fill="#BDFDE9"/>
<path d="M26.5625 45.1562H23.9062V47.8125H26.5625V45.1562Z" fill="#00CD84"/>
<path d="M61.0938 45.1562H26.5625V47.8125H61.0938V45.1562Z" fill="#25E1AE"/>
<path d="M63.75 45.1562H61.0938V47.8125H63.75V45.1562Z" fill="#00CD84"/>
<path d="M69.0625 45.1562H63.75V47.8125H69.0625V45.1562Z" fill="white"/>
<path d="M71.7188 45.1562H69.0625V47.8125H71.7188V45.1562Z" fill="#25E1AE"/>
<path d="M18.5938 47.8125H15.9375V50.4688H18.5938V47.8125Z" fill="#25E1AE"/>
<path d="M26.5625 47.8125H18.5938V50.4688H26.5625V47.8125Z" fill="#BDFDE9"/>
<path d="M61.0938 47.8125H26.5625V50.4688H61.0938V47.8125Z" fill="#00CD84"/>
<path d="M66.4062 47.8125H61.0938V50.4688H66.4062V47.8125Z" fill="white"/>
<path d="M69.0625 47.8125H66.4062V50.4688H69.0625V47.8125Z" fill="#25E1AE"/>
<path d="M21.25 50.4688H18.5938V53.125H21.25V50.4688Z" fill="#25E1AE"/>
<path d="M26.5625 50.4688H21.25V53.125H26.5625V50.4688Z" fill="#BDFDE9"/>
<path d="M37.1875 50.4688H26.5625V53.125H37.1875V50.4688Z" fill="white"/>
<path d="M39.8438 50.4688H37.1875V53.125H39.8438V50.4688Z" fill="#00CD84"/>
<path d="M42.5 50.4688H39.8438V53.125H42.5V50.4688Z" fill="white"/>
<path d="M45.1562 50.4688H42.5V53.125H45.1562V50.4688Z" fill="#00CD84"/>
<path d="M47.8125 50.4688H45.1562V53.125H47.8125V50.4688Z" fill="white"/>
<path d="M50.4688 50.4688H47.8125V53.125H50.4688V50.4688Z" fill="#00CD84"/>
<path d="M63.75 50.4688H50.4688V53.125H63.75V50.4688Z" fill="white"/>
<path d="M66.4062 50.4688H63.75V53.125H66.4062V50.4688Z" fill="#25E1AE"/>
<path d="M21.25 53.125H18.5938V55.7812H21.25V53.125Z" fill="#25E1AE"/>
<path d="M29.2188 53.125H21.25V55.7812H29.2188V53.125Z" fill="#BDFDE9"/>
<path d="M39.8438 53.125H29.2188V55.7812H39.8438V53.125Z" fill="white"/>
<path d="M42.5 53.125H39.8438V55.7812H42.5V53.125Z" fill="#00CD84"/>
<path d="M45.1562 53.125H42.5V55.7812H45.1562V53.125Z" fill="white"/>
<path d="M47.8125 53.125H45.1562V55.7812H47.8125V53.125Z" fill="#00CD84"/>
<path d="M63.75 53.125H47.8125V55.7812H63.75V53.125Z" fill="white"/>
<path d="M66.4062 53.125H63.75V55.7812H66.4062V53.125Z" fill="#25E1AE"/>
<path d="M63.75 55.7812H21.25V58.4375H63.75V55.7812Z" fill="#25E1AE"/>
<path d="M42.5 29.2188H26.5625V31.875H42.5V29.2188Z" fill="black"/>
<path d="M61.0938 29.2188H45.1562V31.875H61.0938V29.2188Z" fill="black"/>
<path d="M34.5312 31.875H26.5625V34.5312H34.5312V31.875Z" fill="black"/>
<path d="M37.1875 31.875H34.5312V34.5312H37.1875V31.875Z" fill="#FF0E0E"/>
<path d="M42.5 31.875H37.1875V34.5312H42.5V31.875Z" fill="black"/>
<path d="M53.125 31.875H45.1562V34.5312H53.125V31.875Z" fill="black"/>
<path d="M55.7812 31.875H53.125V34.5312H55.7812V31.875Z" fill="#FF0E0E"/>
<path d="M61.0938 31.875H55.7812V34.5312H61.0938V31.875Z" fill="black"/>
<path d="M61.0938 34.5312H18.5938V37.1875H61.0938V34.5312Z" fill="black"/>
<path d="M21.25 37.1875H18.5938V39.8438H21.25V37.1875Z" fill="black"/>
<path d="M29.2188 37.1875H26.5625V39.8438H29.2188V37.1875Z" fill="black"/>
<path d="M31.875 37.1875H29.2188V39.8438H31.875V37.1875Z" fill="#0ADC4D"/>
<path d="M37.1875 37.1875H31.875V39.8438H37.1875V37.1875Z" fill="black"/>
<path d="M39.8438 37.1875H37.1875V39.8438H39.8438V37.1875Z" fill="#1929F4"/>
<path d="M42.5 37.1875H39.8438V39.8438H42.5V37.1875Z" fill="black"/>
<path d="M47.8125 37.1875H45.1562V39.8438H47.8125V37.1875Z" fill="black"/>
<path d="M50.4688 37.1875H47.8125V39.8438H50.4688V37.1875Z" fill="#0ADC4D"/>
<path d="M55.7812 37.1875H50.4688V39.8438H55.7812V37.1875Z" fill="black"/>
<path d="M58.4375 37.1875H55.7812V39.8438H58.4375V37.1875Z" fill="#1929F4"/>
<path d="M61.0938 37.1875H58.4375V39.8438H61.0938V37.1875Z" fill="black"/>
<path d="M21.25 39.8438H18.5938V42.5H21.25V39.8438Z" fill="black"/>
<path d="M42.5 39.8438H26.5625V42.5H42.5V39.8438Z" fill="black"/>
<path d="M61.0938 39.8438H45.1562V42.5H61.0938V39.8438Z" fill="black"/>
<path d="M42.5 42.5H26.5625V45.1562H42.5V42.5Z" fill="black"/>
<path d="M61.0938 42.5H45.1562V45.1562H61.0938V42.5Z" fill="black"/>
</g>
</svg>
